<svg height="512pt" viewBox="0 -29 512 512" width="512pt" xmlns="http://www.w3.org/2000/svg"><path d="m313.152344 453.820312c-8.503906 0-15.398438-6.894531-15.398438-15.402343v-82.136719c0-8.507812 6.894532-15.402344 15.398438-15.402344 8.507812 0 15.402344 6.894532 15.402344 15.402344v82.136719c0 8.507812-6.894532 15.402343-15.402344 15.402343zm0 0" fill="#0074f0"/><path d="m198.847656 453.820312c-8.507812 0-15.402344-6.894531-15.402344-15.402343v-82.136719c0-8.507812 6.894532-15.402344 15.402344-15.402344 8.503906 0 15.398438 6.894532 15.398438 15.402344v82.136719c0 8.507812-6.894532 15.402343-15.398438 15.402343zm0 0" fill="#0074f0"/><path d="m374.074219 453.820312h-236.152344c-8.507813 0-15.402344-6.894531-15.402344-15.402343 0-8.503907 6.894531-15.398438 15.402344-15.398438h236.152344c8.503906 0 15.398437 6.894531 15.398437 15.398438 0 8.507812-6.894531 15.402343-15.398437 15.402343zm0 0" fill="#0053ad"/><path d="m496.597656 371.679688h-481.195312c-8.507813 0-15.402344-6.894532-15.402344-15.398438v-340.878906c0-8.507813 6.894531-15.402344 15.402344-15.402344h481.195312c8.507813 0 15.402344 6.894531 15.402344 15.402344v340.878906c0 8.507812-6.894531 15.398438-15.402344 15.398438zm-465.796875-30.800782h450.398438v-310.078125h-450.398438zm0 0" fill="#54cbff"/><path d="m382.285156 305.476562h-252.574218c-5.5 0-10.585938-2.9375-13.335938-7.699218-2.75-4.765625-2.75-10.636719 0-15.402344l126.289062-218.738281c2.75-4.761719 7.832032-7.699219 13.335938-7.699219 5.5 0 10.585938 2.9375 13.335938 7.699219l126.289062 218.738281c2.75 4.765625 2.75 10.636719 0 15.402344-2.75 4.761718-7.835938 7.699218-13.339844 7.699218zm-225.898437-30.800781h199.222656l-99.609375-172.535156zm0 0" fill="#feeb70"/><g fill="#ff4fa1"><path d="m240.597656 160.859375v40.898437c0 8.054688 7.085938 15.773438 15.402344 15.402344 8.34375-.375 15.398438-6.769531 15.398438-15.402344 0-13.632812 0-27.265624 0-40.898437 0-8.054687-7.082032-15.773437-15.398438-15.398437-8.34375.371093-15.402344 6.765624-15.402344 15.398437zm0 0"/><path d="m256 259.253906c8.054688 0 15.773438-7.082031 15.398438-15.398437-.371094-8.34375-6.765626-15.402344-15.398438-15.402344-8.054688 0-15.773438 7.082031-15.402344 15.402344.375 8.34375 6.769532 15.398437 15.402344 15.398437zm0 0"/></g></svg>